Coordinates
version=1
nRows=24
nColumns=38
inDegrees=no

Units are S.I. units (second, meters, Newtons, ...)
If the header above contains a line with 'inDegrees', this indicates whether rotational values are in degrees (yes) or radians (no).

endheader
time	pelvis_tilt	pelvis_list	pelvis_rotation	pelvis_tx	pelvis_ty	pelvis_tz	hip_flexion_r	hip_adduction_r	hip_rotation_r	knee_angle_r	ankle_angle_r	subtalar_angle_r	mtp_angle_r	hip_flexion_l	hip_adduction_l	hip_rotation_l	knee_angle_l	ankle_angle_l	subtalar_angle_l	mtp_angle_l	lumbar_extension	lumbar_bending	lumbar_rotation	arm_flex_r	arm_add_r	arm_rot_r	elbow_flex_r	pro_sup_r	wrist_flex_r	wrist_dev_r	arm_flex_l	arm_add_l	arm_rot_l	elbow_flex_l	pro_sup_l	wrist_flex_l	wrist_dev_l
1.56	1.5206	1.50361	0.166167	0.727487	1.3627	1.0411	-0.265917	0.0821102	-0.334064	0.0731164	-0.138406	0	0	0.287984	-0.125724	-0.262882	0	-0.197452	0	0	-0.207186	0.0586993	0.0710335	-0.00629541	-0.301816	-0.0384276	0.9631	1.5708	0	0	-0.201172	-0.247323	0.391472	0.56491	0.973202	0	0
1.57	1.37687	1.49552	0.307274	0.726138	1.37564	1.03672	-0.263567	0.0852029	-0.335715	0.0822685	-0.11747	0	0	0.304927	-0.127164	-0.254241	0	-0.1761	0	0	-0.195001	0.0632702	0.0733956	-0.00510187	-0.303839	-0.0455966	0.974673	1.5708	0	0	-0.214779	-0.2262	0.318526	0.556012	1.02372	0	0
1.58	1.33917	1.4911	0.341542	0.724843	1.38861	1.03311	-0.270298	0.085867	-0.334532	0.0876228	-0.11541	0	0	0.313464	-0.126704	-0.254218	0	-0.169678	0	0	-0.19248	0.064742	0.076242	-0.00102375	-0.307371	-0.0472021	0.983699	1.5708	0	0	-0.220128	-0.222687	0.309813	0.553082	1.02368	0	0
1.59	1.32915	1.4894	0.347124	0.723502	1.40178	1.02993	-0.278986	0.0835433	-0.332269	0.0956736	-0.113963	0	0	0.31853	-0.124068	-0.257084	0	-0.164087	0	0	-0.193319	0.0638246	0.0796105	0.00346611	-0.312777	-0.0437178	0.991547	1.56804	0	0	-0.224182	-0.218814	0.299318	0.549321	1.02612	0	0
1.6	1.36231	1.49171	0.309152	0.722119	1.41516	1.02743	-0.291373	0.0777623	-0.330517	0.106832	-0.111494	0	0	0.318479	-0.118489	-0.263393	0	-0.160463	0	0	-0.19971	0.0598058	0.084746	0.00543784	-0.306714	-0.0621058	0.998824	1.5708	0	0	-0.21999	-0.229963	0.349781	0.547669	0.971819	0	0
1.61	1.39066	1.49459	0.276904	0.720644	1.42884	1.02518	-0.303361	0.0711032	-0.326088	0.11728	-0.112117	0	0	0.319062	-0.112016	-0.267797	0	-0.160015	0	0	-0.204993	0.05423	0.0866855	0.00963738	-0.30707	-0.0626219	1.00202	1.5708	0	0	-0.224412	-0.220611	0.312912	0.541036	1.00537	0	0
1.62	1.45461	1.49949	0.209531	0.719111	1.44281	1.02343	-0.317701	0.0625909	-0.320978	0.129443	-0.113427	0	0	0.316404	-0.10439	-0.272518	0	-0.162998	0	0	-0.213095	0.0469342	0.0892632	0.0115444	-0.304703	-0.0684155	1.0054	1.5708	0	0	-0.223719	-0.221359	0.315658	0.536484	1.00141	0	0
1.63	1.53654	1.50494	0.124847	0.717462	1.45718	1.02196	-0.332804	0.0531335	-0.314402	0.141593	-0.116429	0	0	0.312019	-0.0963637	-0.274479	0	-0.167754	0	0	-0.220892	0.0387749	0.0917016	0.011175	-0.30135	-0.0752148	1.00763	1.5708	0	0	-0.222924	-0.222501	0.317966	0.532187	0.998716	0	0
1.64	1.63579	1.51029	0.0228022	0.715717	1.47205	1.02067	-0.347633	0.0428163	-0.306334	0.155282	-0.121766	0	0	0.305623	-0.0884144	-0.273125	0	-0.174362	0	0	-0.227551	0.0302399	0.0946675	0.00819613	-0.297077	-0.0833493	1.00884	1.5708	0	0	-0.222541	-0.22412	0.321013	0.528502	0.996788	0	0
1.65	1.79761	1.51529	-0.143231	0.713987	1.48734	1.01974	-0.363655	0.0305094	-0.296417	0.172296	-0.152407	0	0	0.295999	-0.0807093	-0.276962	0.0111989	-0.201853	0	0	-0.236359	0.0206256	0.100367	0.00192542	-0.287602	-0.102127	1.01129	1.5708	0	0	-0.220934	-0.229459	0.337321	0.527675	0.984903	0	0
1.66	1.87367	1.51901	-0.224222	0.712157	1.50311	1.01843	-0.372159	0.0184373	-0.282376	0.192379	-0.155472	0	0	0.294872	-0.0748631	-0.284055	0.0417359	-0.212262	0	0	-0.2362	0.0123205	0.104951	-0.00468324	-0.283361	-0.107122	1.00878	1.5708	0	0	-0.223243	-0.230931	0.338882	0.525315	0.985131	0	0
1.67	1.94411	1.52284	-0.300962	0.710291	1.51903	1.01735	-0.378058	0.00492086	-0.262746	0.214051	-0.184105	0	0	0.293837	-0.0685001	-0.289685	0.0652412	-0.252068	0	0	-0.234588	0.00351534	0.109465	-0.0103751	-0.277776	-0.1114	1.00275	1.5708	0	0	-0.22714	-0.227239	0.319334	0.521091	1.00304	0	0
1.68	1.99654	1.52749	-0.359928	0.708436	1.53488	1.01659	-0.379216	-0.0103212	-0.236947	0.24052	-0.224132	0	0	0.295967	-0.0636298	-0.29728	0.0919666	-0.282111	0	0	-0.230715	-0.00567171	0.113731	-0.0150294	-0.272657	-0.112114	0.992538	1.5708	0	0	-0.220921	-0.244158	0.394253	0.518645	0.929049	0	0
1.69	2.02808	1.53271	-0.397096	0.70658	1.55045	1.01611	-0.374729	-0.0265316	-0.206345	0.273474	-0.256113	0	0	0.300363	-0.061734	-0.304814	0.124271	-0.288942	0	0	-0.226082	-0.0152893	0.114754	-0.0166711	-0.26686	-0.108769	0.978	1.5708	0	0	-0.221662	-0.243802	0.391643	0.513163	0.925469	0	0
1.7	2.0204	1.53909	-0.393391	0.704661	1.56575	1.01582	-0.363416	-0.0433117	-0.178389	0.312458	-0.297008	0	0	0.306593	-0.0613501	-0.312025	0.161194	-0.282131	0	0	-0.219568	-0.0251038	0.113169	-0.0172087	-0.260327	-0.103446	0.9603	1.5708	0	0	-0.22258	-0.243113	0.384967	0.508983	0.920054	0	0
1.71	1.99759	1.54716	-0.372472	0.70263	1.58074	1.01581	-0.346507	-0.0612633	-0.157464	0.356886	-0.343429	0	0	0.312887	-0.0587605	-0.31473	0.198972	-0.269145	0	0	-0.212624	-0.0360528	0.108861	-0.0171904	-0.252894	-0.097425	0.940839	1.5708	0	0	-0.223312	-0.242938	0.37591	0.506861	0.915462	0	0
1.72	2.05119	1.55646	-0.427096	0.700601	1.59543	1.01617	-0.32627	-0.0801811	-0.140331	0.40735	-0.369381	0	0	0.318775	-0.0543548	-0.320538	0.240468	-0.258924	0	0	-0.207633	-0.0485585	0.103562	-0.0170761	-0.244676	-0.0919282	0.921022	1.5708	0	0	-0.222999	-0.244261	0.36802	0.507475	0.911422	0	0
1.73	2.53335	1.56535	-0.910532	0.698668	1.60982	1.01687	-0.30361	-0.0981913	-0.12351	0.459985	-0.418839	0	0	0.321934	-0.0480383	-0.326863	0.279049	-0.242462	0	0	-0.204369	-0.0616082	0.0991333	-0.0171634	-0.236641	-0.0862653	0.90072	1.5708	0	0	-0.219769	-0.249146	0.373778	0.510087	0.89688	0	0
1.74	-1.96008	1.56378	-2.70234	0.696832	1.62389	1.01762	-0.277548	-0.115309	-0.107345	0.51491	-0.481738	0	0	0.323062	-0.0402447	-0.331602	0.312645	-0.222226	0	0	-0.201973	-0.0743183	0.0957265	-0.017726	-0.229386	-0.0798408	0.88108	1.5708	0	0	-0.219255	-0.244509	0.334946	0.512028	0.928161	0	0
1.75	-1.6328	1.55698	-3.03331	0.694971	1.63758	1.01837	-0.247416	-0.126822	-0.0834214	0.571779	-0.549482	0	0	0.322448	-0.0333905	-0.334188	0.340029	-0.200116	0	0	-0.19899	-0.0830396	0.0965028	-0.0207166	-0.225462	-0.0724115	0.86374	1.5708	0	0	-0.204256	-0.265518	0.419514	0.518314	0.846838	0	0
1.76	-1.50904	1.55155	3.11931	0.693397	1.65093	1.01896	-0.211596	-0.135472	-0.0578088	0.634893	-0.604621	0	0	0.320758	-0.0292457	-0.340648	0.36417	-0.181598	0	0	-0.196089	-0.0897732	0.0997559	-0.0234867	-0.22324	-0.0621805	0.847698	1.5708	0	0	-0.197227	-0.267331	0.416607	0.522833	0.849554	0	0
1.77	-1.45745	1.54689	3.05805	0.692247	1.66403	1.01955	-0.172762	-0.142759	-0.0347959	0.700309	-0.643772	0	0	0.314922	-0.0262132	-0.348473	0.380897	-0.168643	0	0	-0.193789	-0.0957576	0.10598	-0.0263527	-0.221409	-0.0511616	0.832379	1.5708	0	0	-0.188623	-0.272098	0.423216	0.530455	0.845356	0	0
1.78	-1.4536	1.54378	3.04246	0.691377	1.67699	1.02032	-0.133824	-0.148522	-0.0157666	0.762007	-0.690749	0	0	0.304589	-0.0245864	-0.357965	0.39124	-0.153792	0	0	-0.19227	-0.100164	0.113828	-0.0282702	-0.220961	-0.0359776	0.816117	1.5708	0	0	-0.17899	-0.277511	0.432764	0.538891	0.842032	0	0
1.79	-1.47248	1.54282	3.04755	0.690718	1.68982	1.02137	-0.0959701	-0.151402	0.00573966	0.820385	-0.698132	0	0	0.290448	-0.0246213	-0.369105	0.395652	-0.140301	0	0	-0.19131	-0.102334	0.12289	-0.028494	-0.221658	-0.0168612	0.798046	1.5708	0	0	-0.169094	-0.281841	0.439767	0.547239	0.844893	0	0
